%TF.GenerationSoftware,KiCad,Pcbnew,9.0.3*%
%TF.CreationDate,2025-07-19T00:48:33+05:30*%
%TF.ProjectId,Project_1,50726f6a-6563-4745-9f31-2e6b69636164,rev?*%
%TF.SameCoordinates,Original*%
%TF.FileFunction,Legend,Top*%
%TF.FilePolarity,Positive*%
%FSLAX46Y46*%
G04 Gerber Fmt 4.6, Leading zero omitted, Abs format (unit mm)*
G04 Created by KiCad (PCBNEW 9.0.3) date 2025-07-19 00:48:33*
%MOMM*%
%LPD*%
G01*
G04 APERTURE LIST*
%ADD10C,0.150000*%
%ADD11C,0.120000*%
G04 APERTURE END LIST*
D10*
X137904761Y-74299819D02*
X137571428Y-73823628D01*
X137333333Y-74299819D02*
X137333333Y-73299819D01*
X137333333Y-73299819D02*
X137714285Y-73299819D01*
X137714285Y-73299819D02*
X137809523Y-73347438D01*
X137809523Y-73347438D02*
X137857142Y-73395057D01*
X137857142Y-73395057D02*
X137904761Y-73490295D01*
X137904761Y-73490295D02*
X137904761Y-73633152D01*
X137904761Y-73633152D02*
X137857142Y-73728390D01*
X137857142Y-73728390D02*
X137809523Y-73776009D01*
X137809523Y-73776009D02*
X137714285Y-73823628D01*
X137714285Y-73823628D02*
X137333333Y-73823628D01*
X138190476Y-73299819D02*
X138523809Y-74299819D01*
X138523809Y-74299819D02*
X138857142Y-73299819D01*
X139714285Y-74299819D02*
X139142857Y-74299819D01*
X139428571Y-74299819D02*
X139428571Y-73299819D01*
X139428571Y-73299819D02*
X139333333Y-73442676D01*
X139333333Y-73442676D02*
X139238095Y-73537914D01*
X139238095Y-73537914D02*
X139142857Y-73585533D01*
X137333333Y-55554819D02*
X137000000Y-55078628D01*
X136761905Y-55554819D02*
X136761905Y-54554819D01*
X136761905Y-54554819D02*
X137142857Y-54554819D01*
X137142857Y-54554819D02*
X137238095Y-54602438D01*
X137238095Y-54602438D02*
X137285714Y-54650057D01*
X137285714Y-54650057D02*
X137333333Y-54745295D01*
X137333333Y-54745295D02*
X137333333Y-54888152D01*
X137333333Y-54888152D02*
X137285714Y-54983390D01*
X137285714Y-54983390D02*
X137238095Y-55031009D01*
X137238095Y-55031009D02*
X137142857Y-55078628D01*
X137142857Y-55078628D02*
X136761905Y-55078628D01*
X138285714Y-55554819D02*
X137714286Y-55554819D01*
X138000000Y-55554819D02*
X138000000Y-54554819D01*
X138000000Y-54554819D02*
X137904762Y-54697676D01*
X137904762Y-54697676D02*
X137809524Y-54792914D01*
X137809524Y-54792914D02*
X137714286Y-54840533D01*
X137304761Y-61120057D02*
X137209523Y-61072438D01*
X137209523Y-61072438D02*
X137114285Y-60977200D01*
X137114285Y-60977200D02*
X136971428Y-60834342D01*
X136971428Y-60834342D02*
X136876190Y-60786723D01*
X136876190Y-60786723D02*
X136780952Y-60786723D01*
X136828571Y-61024819D02*
X136733333Y-60977200D01*
X136733333Y-60977200D02*
X136638095Y-60881961D01*
X136638095Y-60881961D02*
X136590476Y-60691485D01*
X136590476Y-60691485D02*
X136590476Y-60358152D01*
X136590476Y-60358152D02*
X136638095Y-60167676D01*
X136638095Y-60167676D02*
X136733333Y-60072438D01*
X136733333Y-60072438D02*
X136828571Y-60024819D01*
X136828571Y-60024819D02*
X137019047Y-60024819D01*
X137019047Y-60024819D02*
X137114285Y-60072438D01*
X137114285Y-60072438D02*
X137209523Y-60167676D01*
X137209523Y-60167676D02*
X137257142Y-60358152D01*
X137257142Y-60358152D02*
X137257142Y-60691485D01*
X137257142Y-60691485D02*
X137209523Y-60881961D01*
X137209523Y-60881961D02*
X137114285Y-60977200D01*
X137114285Y-60977200D02*
X137019047Y-61024819D01*
X137019047Y-61024819D02*
X136828571Y-61024819D01*
X138209523Y-61024819D02*
X137638095Y-61024819D01*
X137923809Y-61024819D02*
X137923809Y-60024819D01*
X137923809Y-60024819D02*
X137828571Y-60167676D01*
X137828571Y-60167676D02*
X137733333Y-60262914D01*
X137733333Y-60262914D02*
X137638095Y-60310533D01*
X120616905Y-72044819D02*
X120616905Y-71044819D01*
X121188333Y-72044819D02*
X120759762Y-71473390D01*
X121188333Y-71044819D02*
X120616905Y-71616247D01*
X122140714Y-72044819D02*
X121569286Y-72044819D01*
X121855000Y-72044819D02*
X121855000Y-71044819D01*
X121855000Y-71044819D02*
X121759762Y-71187676D01*
X121759762Y-71187676D02*
X121664524Y-71282914D01*
X121664524Y-71282914D02*
X121569286Y-71330533D01*
X140416666Y-87534819D02*
X140416666Y-88249104D01*
X140416666Y-88249104D02*
X140369047Y-88391961D01*
X140369047Y-88391961D02*
X140273809Y-88487200D01*
X140273809Y-88487200D02*
X140130952Y-88534819D01*
X140130952Y-88534819D02*
X140035714Y-88534819D01*
X141416666Y-88534819D02*
X140845238Y-88534819D01*
X141130952Y-88534819D02*
X141130952Y-87534819D01*
X141130952Y-87534819D02*
X141035714Y-87677676D01*
X141035714Y-87677676D02*
X140940476Y-87772914D01*
X140940476Y-87772914D02*
X140845238Y-87820533D01*
X118714285Y-67931009D02*
X118857142Y-67978628D01*
X118857142Y-67978628D02*
X118904761Y-68026247D01*
X118904761Y-68026247D02*
X118952380Y-68121485D01*
X118952380Y-68121485D02*
X118952380Y-68264342D01*
X118952380Y-68264342D02*
X118904761Y-68359580D01*
X118904761Y-68359580D02*
X118857142Y-68407200D01*
X118857142Y-68407200D02*
X118761904Y-68454819D01*
X118761904Y-68454819D02*
X118380952Y-68454819D01*
X118380952Y-68454819D02*
X118380952Y-67454819D01*
X118380952Y-67454819D02*
X118714285Y-67454819D01*
X118714285Y-67454819D02*
X118809523Y-67502438D01*
X118809523Y-67502438D02*
X118857142Y-67550057D01*
X118857142Y-67550057D02*
X118904761Y-67645295D01*
X118904761Y-67645295D02*
X118904761Y-67740533D01*
X118904761Y-67740533D02*
X118857142Y-67835771D01*
X118857142Y-67835771D02*
X118809523Y-67883390D01*
X118809523Y-67883390D02*
X118714285Y-67931009D01*
X118714285Y-67931009D02*
X118380952Y-67931009D01*
X119238095Y-67454819D02*
X119809523Y-67454819D01*
X119523809Y-68454819D02*
X119523809Y-67454819D01*
X120666666Y-68454819D02*
X120095238Y-68454819D01*
X120380952Y-68454819D02*
X120380952Y-67454819D01*
X120380952Y-67454819D02*
X120285714Y-67597676D01*
X120285714Y-67597676D02*
X120190476Y-67692914D01*
X120190476Y-67692914D02*
X120095238Y-67740533D01*
D11*
%TO.C,RV1*%
X133390000Y-74985000D02*
X143610000Y-74985000D01*
X133390000Y-76099000D02*
X133390000Y-74985000D01*
X133390000Y-81099000D02*
X133390000Y-78891000D01*
X133390000Y-85005000D02*
X133390000Y-83891000D01*
X143610000Y-74985000D02*
X143610000Y-78599000D01*
X143610000Y-81391000D02*
X143610000Y-85005000D01*
X143610000Y-85005000D02*
X133390000Y-85005000D01*
%TO.C,R1*%
X135950000Y-55850000D02*
X139000000Y-55850000D01*
X135950000Y-60150000D02*
X139000000Y-60150000D01*
X135950000Y-60150000D02*
G75*
G02*
X135971766Y-55834475I1550000J2150000D01*
G01*
X139000000Y-55850000D02*
G75*
G02*
X139044513Y-60118249I-1500000J-2150000D01*
G01*
%TO.C,Q1*%
X135600000Y-65980000D02*
X139200000Y-65980000D01*
X135561522Y-65968478D02*
G75*
G02*
X137400000Y-61529999I1838478J1838478D01*
G01*
X137400000Y-61530000D02*
G75*
G02*
X139238478Y-65968478I0J-2600000D01*
G01*
%TO.C,K1*%
X113405000Y-74640000D02*
X113405000Y-76940000D01*
X113645000Y-91490000D02*
X113645000Y-72480000D01*
X115355000Y-77490000D02*
X115355000Y-79790000D01*
X117055000Y-87990000D02*
X119355000Y-87990000D01*
X117655000Y-83290000D02*
X117655000Y-76390000D01*
X119855000Y-77290000D02*
X122855000Y-77290000D01*
X119855000Y-79790000D02*
X115355000Y-79790000D01*
X119855000Y-82290000D02*
X119855000Y-77290000D01*
X119855000Y-82290000D02*
X122855000Y-77290000D01*
X120155000Y-72480000D02*
X113645000Y-72480000D01*
X121355000Y-76390000D02*
X117655000Y-76390000D01*
X121355000Y-76390000D02*
X121355000Y-75490000D01*
X121355000Y-83290000D02*
X117655000Y-83290000D01*
X121355000Y-83290000D02*
X121355000Y-84790000D01*
X121355000Y-84790000D02*
X124055000Y-89290000D01*
X122855000Y-77290000D02*
X122855000Y-82290000D01*
X122855000Y-82290000D02*
X119855000Y-82290000D01*
X125655000Y-87990000D02*
X123355000Y-87990000D01*
X127355000Y-79790000D02*
X122855000Y-79790000D01*
X127355000Y-79790000D02*
X127355000Y-77490000D01*
X129065000Y-72480000D02*
X122555000Y-72480000D01*
X129065000Y-72480000D02*
X129065000Y-91500000D01*
X129065000Y-91500000D02*
X113645000Y-91500000D01*
%TO.C,J1*%
X137130000Y-89080000D02*
X144370000Y-89080000D01*
X137130000Y-94200000D02*
X144370000Y-94200000D01*
X137130000Y-95820000D02*
X137130000Y-89080000D01*
X138700000Y-95820000D02*
X137130000Y-95820000D01*
X144370000Y-89080000D02*
X144370000Y-95820000D01*
X144370000Y-95820000D02*
X139300000Y-95820000D01*
X139440000Y-96430000D02*
X138560000Y-96430000D01*
X139000000Y-95820000D01*
X139440000Y-96430000D01*
G36*
X139440000Y-96430000D02*
G01*
X138560000Y-96430000D01*
X139000000Y-95820000D01*
X139440000Y-96430000D01*
G37*
%TO.C,BT1*%
X126250000Y-63450000D02*
X123650000Y-66050000D01*
X126250000Y-61800000D02*
X126250000Y-63450000D01*
X126250000Y-58200000D02*
X126250000Y-55900000D01*
X123650000Y-66850000D02*
X115350000Y-66850000D01*
X123650000Y-66050000D02*
X123650000Y-66850000D01*
X115350000Y-66850000D02*
X115350000Y-66050000D01*
X115350000Y-66050000D02*
X112750000Y-63450000D01*
X112750000Y-63450000D02*
X112750000Y-61800000D01*
X112750000Y-58200000D02*
X112750000Y-55900000D01*
X124800000Y-54400000D02*
G75*
G02*
X126249999Y-55900000I-49974J-1499141D01*
G01*
X124000000Y-54800000D02*
G75*
G02*
X124914615Y-54415840I790000J-600001D01*
G01*
X114200000Y-54400000D02*
G75*
G02*
X115000000Y-54800000I-6100J-1012200D01*
G01*
X112750000Y-55900000D02*
G75*
G02*
X114200000Y-54400002I1499970J860D01*
G01*
%TD*%
M02*
